<?xml version="1.0" encoding="utf-8"?>
<!-- Generator: Adobe Illustrator 22.1.0, SVG Export Plug-In . SVG Version: 6.00 Build 0)  -->
<svg version="1.1" id="Layer_1" xmlns="http://www.w3.org/2000/svg" xmlns:xlink="http://www.w3.org/1999/xlink" x="0px" y="0px"
	 viewBox="0 0 40 411.4" style="enable-background:new 0 0 40 411.4;" xml:space="preserve">
<style type="text/css">
	.st0{fill:#231F20;}
</style>
<g>
	<path d="M9.1,24.5c1.4-1.4,2.8-2.9,3.9-4.4c1.2-1.5,2.1-3.3,2.9-5.1h-5.8c-0.7,0-1-0.3-1-0.9c0-0.3,0.1-0.5,0.3-0.7
		c0.2-0.2,0.4-0.3,0.8-0.3h6.5c0.1-0.3,0.2-0.6,0.3-1c0.1-0.3,0.2-0.7,0.3-1c0.1-0.5,0.3-0.9,0.5-1c0.2-0.1,0.5-0.2,0.8-0.1
		c0.3,0.1,0.5,0.2,0.6,0.5c0.1,0.3,0.1,0.6,0,1c-0.1,0.3-0.2,0.5-0.2,0.8c-0.1,0.3-0.2,0.6-0.2,0.8h11.6c0.3,0,0.6,0.1,0.8,0.3
		s0.3,0.4,0.3,0.7c0,0.6-0.4,0.9-1.1,0.9H17.9c-0.9,2.3-2.1,4.4-3.6,6.4V32c0,0.3-0.1,0.6-0.3,0.7c-0.2,0.1-0.4,0.2-0.7,0.2
		c-0.3,0-0.5-0.1-0.6-0.2c-0.2-0.1-0.3-0.4-0.3-0.7v-8.4c-0.3,0.4-0.7,0.8-1,1.1c-0.3,0.4-0.7,0.7-1.1,1c-0.4,0.3-0.7,0.5-0.9,0.6
		c-0.3,0-0.5-0.1-0.7-0.4c-0.2-0.2-0.3-0.4-0.2-0.6C8.5,25.2,8.7,24.9,9.1,24.5z M22.1,30.3v-7.2h-5.4c-0.7,0-1-0.3-1-0.9
		c0-0.3,0.1-0.5,0.2-0.7s0.4-0.3,0.8-0.3h5.4v-4.4c0-0.3,0.1-0.6,0.2-0.8c0.2-0.2,0.4-0.3,0.7-0.3c0.3,0,0.5,0.1,0.7,0.3
		c0.2,0.2,0.3,0.4,0.3,0.8v4.4h5.4c0.3,0,0.6,0.1,0.7,0.3s0.2,0.4,0.2,0.7c0,0.3-0.1,0.5-0.2,0.7c-0.1,0.2-0.4,0.2-0.7,0.2h-5.4v7.2
		h5.9c0.3,0,0.6,0.1,0.8,0.2c0.2,0.2,0.3,0.4,0.3,0.7c0,0.6-0.4,0.9-1,0.9H15.9c-0.7,0-1.1-0.3-1.1-0.9c0-0.3,0.1-0.5,0.3-0.7
		c0.2-0.2,0.4-0.2,0.8-0.2H22.1z"/>
	<path d="M16.9,49.9c0.1,0.7-0.1,1.2-0.6,1.3c-0.3,0.1-0.6,0-0.7-0.1c-0.2-0.1-0.3-0.4-0.4-0.8c0,0,0,0,0,0c0,0,0,0,0,0
		c-0.7,0.1-1.5,0.2-2.2,0.3c-0.8,0.1-1.6,0.2-2.5,0.2c-0.4,0-0.7,0-0.9-0.1c-0.2-0.1-0.4-0.3-0.5-0.5c-0.1-0.2-0.1-0.5-0.1-0.7
		C9,49.3,9.1,49,9.4,48.7c0.5-0.6,1-1.3,1.5-1.8c0.5-0.6,0.9-1.2,1.4-1.8l-2,0.1c-0.4,0-0.7,0-0.9-0.2c-0.2-0.1-0.4-0.3-0.5-0.5
		c-0.1-0.2-0.1-0.5-0.1-0.7c0-0.3,0.1-0.5,0.3-0.8c0.4-0.6,0.7-1.1,1.1-1.6c0.3-0.5,0.6-1,0.9-1.5c0.3-0.5,0.6-1,0.8-1.4
		c0.3-0.5,0.5-1,0.8-1.5c0.2-0.3,0.4-0.6,0.6-0.7s0.4-0.2,0.7-0.1c0.3,0.1,0.5,0.3,0.5,0.6s0,0.6-0.2,1c-0.5,1-0.9,1.8-1.4,2.6
		c-0.5,0.8-0.9,1.5-1.4,2.1c-0.3,0.4-0.3,0.6-0.3,0.7s0.3,0.1,0.6,0.1c0.3,0,0.5,0,0.8,0c0.3,0,0.5,0,0.8,0c0.6-0.9,1.2-1.9,1.8-2.8
		c0.2-0.3,0.4-0.6,0.6-0.8c0.2-0.2,0.5-0.2,0.9,0c0.6,0.3,0.7,0.8,0.2,1.5c-0.5,0.7-0.9,1.4-1.3,2c-0.4,0.6-0.8,1.2-1.2,1.8
		c-0.4,0.6-0.8,1.1-1.3,1.6c-0.4,0.5-0.9,1.1-1.3,1.6c-0.3,0.3-0.4,0.5-0.4,0.5c0,0.1,0.2,0.1,0.5,0.1c0.5-0.1,1-0.1,1.4-0.2
		c0.5-0.1,0.9-0.1,1.3-0.2c-0.1-0.3-0.2-0.6-0.2-0.9s-0.2-0.6-0.2-0.9c-0.1-0.5,0-0.9,0.4-1.1c0.2-0.1,0.4-0.1,0.7-0.1
		c0.3,0.1,0.4,0.3,0.5,0.6c0.1,0.4,0.2,0.8,0.3,1.1s0.2,0.6,0.2,0.9c0.1,0.3,0.1,0.6,0.2,0.9C16.8,49.3,16.8,49.6,16.9,49.9z
		 M10.5,52.5c0.3,0.8,0.4,1.6,0.6,2.3c0.1,0.8,0.2,1.6,0.3,2.4c0,0.4,0,0.6-0.2,0.8c-0.1,0.2-0.4,0.3-0.7,0.3
		c-0.3,0-0.5-0.1-0.6-0.3c-0.1-0.2-0.2-0.5-0.2-1c0-0.6-0.1-1.2-0.2-1.9c-0.1-0.7-0.3-1.4-0.5-2.2c-0.1-0.3-0.1-0.5,0-0.7
		c0-0.2,0.2-0.4,0.5-0.5c0.3-0.1,0.6-0.1,0.7,0C10.3,51.9,10.4,52.2,10.5,52.5z M14.1,56.2c0.1,0.4,0.1,0.7,0,0.9
		c-0.1,0.2-0.3,0.3-0.6,0.4c-0.3,0.1-0.5,0.1-0.7-0.1c-0.1-0.1-0.2-0.4-0.3-0.9c-0.1-0.6-0.2-1.2-0.3-1.8c-0.1-0.6-0.3-1.2-0.5-1.9
		c-0.1-0.3-0.1-0.6,0-0.8c0-0.2,0.2-0.3,0.5-0.4c0.3-0.1,0.5-0.1,0.7,0c0.2,0.1,0.3,0.3,0.5,0.7c0.2,0.7,0.4,1.4,0.5,2
		S14,55.6,14.1,56.2z M16.4,52c0.2,0.5,0.3,0.9,0.4,1.3c0.1,0.4,0.3,1,0.4,1.7c0,0.3,0.1,0.5,0,0.6c0,0,0.1-0.1,0.1-0.1
		s0.1,0,0.1-0.1c0.8-0.5,1.5-1.1,2-1.8c0.5-0.6,0.9-1.3,1.2-2.2c0.1-0.3,0.1-0.4,0-0.5c-0.1-0.1-0.2-0.1-0.4-0.1h-1.9
		c-0.4,0-0.6-0.1-0.8-0.2s-0.2-0.3-0.2-0.7c0-0.3,0.1-0.5,0.2-0.6c0.2-0.1,0.4-0.2,0.8-0.2h2.8c0.6,0,1,0.2,1.3,0.6
		c0.2,0.4,0.2,1-0.1,1.9c-0.3,1-0.8,2-1.6,2.9c-0.7,1-1.6,1.8-2.5,2.4c-0.3,0.2-0.6,0.3-0.9,0.3c-0.3,0-0.5-0.1-0.7-0.4
		c-0.1-0.2-0.2-0.4-0.1-0.6l-0.1,0c-0.3,0.1-0.5,0-0.6-0.2c-0.1-0.2-0.3-0.5-0.4-1c-0.1-0.5-0.2-1-0.3-1.4c-0.1-0.4-0.2-0.8-0.4-1.3
		c-0.1-0.3-0.1-0.5-0.1-0.8s0.2-0.4,0.5-0.5c0.3-0.1,0.6-0.1,0.8,0.1C16.1,51.6,16.3,51.8,16.4,52z M24.9,56.6
		c0,0.7-0.1,1.2-0.3,1.6c-0.2,0.3-0.7,0.5-1.4,0.5c-0.7,0-1.5-0.1-2.5-0.4c-0.3-0.1-0.5-0.2-0.7-0.4c-0.1-0.2-0.1-0.5,0-0.8
		c0.1-0.3,0.3-0.4,0.5-0.5c0.2-0.1,0.5,0,0.9,0.1c0.4,0.1,0.7,0.2,0.9,0.3c0.2,0,0.4,0.1,0.6,0.1c0.2,0,0.3-0.2,0.3-0.5v-8.8H20
		c-0.7,0-1.3-0.1-1.5-0.4s-0.4-0.8-0.4-1.5V40c0-0.7,0.1-1.2,0.4-1.5c0.2-0.3,0.8-0.5,1.6-0.5h1.8c0.1-0.2,0.2-0.4,0.3-0.6
		c0.1-0.2,0.2-0.4,0.3-0.6c0.2-0.4,0.4-0.6,0.6-0.8c0.2-0.1,0.5-0.1,0.8,0c0.6,0.3,0.7,0.7,0.3,1.4c-0.1,0.1-0.1,0.2-0.2,0.3
		c-0.1,0.1-0.1,0.2-0.2,0.3h3.8c0.7,0,1.2,0.1,1.5,0.4c0.3,0.3,0.4,0.8,0.4,1.5v5.8c0,0.7-0.1,1.2-0.4,1.5c-0.3,0.3-0.8,0.4-1.6,0.4
		h-2.5v1.1c0.2,0.4,0.5,0.9,0.7,1.3s0.5,0.9,0.8,1.3c0.5-0.4,1-0.7,1.3-1.1s0.7-0.8,1.1-1.3c0.6-0.7,1.1-0.8,1.6-0.4
		c0.5,0.4,0.4,0.9-0.1,1.6c-0.5,0.5-0.9,1-1.4,1.4c-0.5,0.4-1,0.8-1.5,1.2c0.9,1.2,2,2.2,3.1,3c0.4,0.3,0.7,0.6,0.8,0.9
		c0.1,0.3,0,0.6-0.1,0.8S30.9,58,30.6,58c-0.3,0-0.6-0.1-0.9-0.4c-0.9-0.7-1.8-1.5-2.6-2.5c-0.8-0.9-1.5-1.9-2.1-2.9V56.6z M19.9,42
		h7.8v-1.8c0-0.3-0.1-0.5-0.4-0.5h-7c-0.2,0-0.3,0.2-0.3,0.5V42z M27.7,43.8h-7.8v1.7c0,0.1,0,0.3,0.1,0.4c0.1,0.1,0.1,0.1,0.2,0.1
		h7.1c0.3,0,0.4-0.2,0.4-0.5V43.8z"/>
	<path d="M16.9,67c0,0.6-0.3,0.9-0.9,0.9H9.7c-0.6,0-0.9-0.3-0.9-0.9c0-0.6,0.3-0.9,0.9-0.9h2.9c0,0-0.1-0.1-0.1-0.1
		c0,0,0-0.1-0.1-0.1c-0.2-0.4-0.5-0.8-0.7-1.2s-0.4-0.7-0.6-1c-0.2-0.3-0.3-0.6-0.4-0.9s0.1-0.4,0.4-0.6c0.3-0.2,0.5-0.3,0.7-0.2
		c0.2,0,0.4,0.3,0.7,0.7c0.3,0.4,0.5,0.8,0.7,1.1c0.2,0.4,0.4,0.7,0.6,1.1c0.3,0.6,0.3,1,0.1,1.2H16C16.6,66.1,16.9,66.4,16.9,67z
		 M16.4,70.2c0,0.6-0.3,0.9-0.9,0.9h-5.1c-0.6,0-0.9-0.3-0.9-0.9c0-0.6,0.3-0.9,0.9-0.9h5.1C16.1,69.3,16.4,69.6,16.4,70.2z
		 M16.4,73.4c0,0.6-0.3,0.9-0.9,0.9h-5.1c-0.6,0-0.9-0.3-0.9-0.9c0-0.6,0.3-0.9,0.9-0.9h5.1C16.1,72.5,16.4,72.8,16.4,73.4z
		 M16.4,81.9c0,0.8-0.2,1.3-0.5,1.6c-0.3,0.3-0.8,0.4-1.3,0.4h-3.1c-0.7,0-1.1-0.2-1.4-0.5c-0.3-0.3-0.4-0.9-0.4-1.5v-4.5
		c0-1.3,0.6-2,1.8-2h3.1c0.6,0,1,0.1,1.3,0.4c0.3,0.3,0.5,0.8,0.5,1.5V81.9z M14.6,77.5c0-0.1,0-0.2-0.1-0.3
		c-0.1-0.1-0.2-0.1-0.4-0.1h-2.4c-0.2,0-0.3,0.1-0.3,0.4v4.2c0,0.3,0.1,0.4,0.3,0.4h2.6c0.3,0,0.4-0.1,0.4-0.4V77.5z M21.7,70.7
		c0,0.6-0.4,0.9-1.1,0.9h-2.9c-0.7,0-1-0.3-1-0.9c0-0.3,0.1-0.5,0.3-0.7s0.4-0.2,0.7-0.2h2.9c0.3,0,0.6,0.1,0.8,0.2
		C21.6,70.1,21.7,70.4,21.7,70.7z M20.9,64.9c0,0.6-0.4,0.9-1.1,0.9h-1.8c-0.7,0-1-0.3-1-0.9c0-0.3,0.1-0.5,0.3-0.7s0.4-0.2,0.7-0.2
		h1.8c0.3,0,0.6,0.1,0.8,0.2C20.8,64.4,20.9,64.6,20.9,64.9z M27.9,75.8c0.7,0,1.2,0.2,1.5,0.5c0.3,0.3,0.4,0.8,0.4,1.5v4.5
		c0,0.7-0.1,1.2-0.4,1.5c-0.3,0.3-0.8,0.5-1.5,0.5h-8c-0.7,0-1.2-0.2-1.5-0.5c-0.3-0.3-0.4-0.8-0.4-1.5v-4.5c0-0.7,0.1-1.2,0.4-1.5
		c0.2-0.3,0.7-0.5,1.4-0.5H27.9z M22,68.1c-0.4,0.6-0.8,0.8-1.4,0.5c-0.4-0.3-0.4-0.7,0-1.4c0.3-0.4,0.5-0.8,0.7-1.1
		c0.2-0.3,0.3-0.7,0.5-1c0.1-0.3,0.2-0.7,0.3-1c0.1-0.3,0.2-0.7,0.3-1.1c0.1-0.3,0.2-0.6,0.3-0.7c0.2-0.1,0.4-0.2,0.7-0.1
		c0.3,0.1,0.4,0.2,0.5,0.4s0.1,0.4,0,0.8c0,0.1-0.1,0.3-0.1,0.4c0,0.1-0.1,0.2-0.1,0.4h5.7c0.7,0,1.2,0.2,1.4,0.6
		c0.2,0.4,0.2,0.9,0,1.5c-0.1,0.3-0.3,0.6-0.4,0.9c-0.2,0.3-0.3,0.6-0.5,0.9c-0.4,0.7-0.9,0.8-1.4,0.4c-0.2-0.2-0.3-0.3-0.3-0.5
		c0-0.2,0.2-0.5,0.4-1c0.3-0.5,0.5-0.8,0.5-0.9c0-0.1,0-0.2-0.2-0.2h-2.6c0,0.5-0.1,1-0.1,1.5c0,0.5-0.1,0.9-0.2,1.3
		c0.3,0.8,0.7,1.5,1,2c0.3,0.6,0.7,1.1,1,1.5c0.3,0.4,0.7,0.8,1.1,1.2c0.4,0.3,0.8,0.7,1.2,1c0.4,0.3,0.7,0.6,0.8,0.8
		c0.1,0.2,0.1,0.5-0.1,0.8c-0.3,0.5-0.8,0.5-1.5,0.1c-0.9-0.6-1.7-1.3-2.3-2s-1.3-1.7-1.9-2.9c-0.4,1-1,1.8-1.7,2.6
		c-0.7,0.7-1.7,1.4-2.9,2.1c-0.5,0.2-0.8,0.3-1,0.3c-0.2,0-0.4-0.2-0.5-0.5c-0.1-0.3-0.1-0.5,0-0.7s0.4-0.4,0.8-0.6
		c0.8-0.4,1.5-0.9,2.1-1.4c0.6-0.5,1.1-1.1,1.4-1.8c0.4-0.7,0.7-1.4,0.9-2.2c0.2-0.8,0.3-1.7,0.3-2.8h-1.4c-0.1,0.4-0.3,0.7-0.5,1.1
		C22.5,67.2,22.3,67.6,22,68.1z M28,78c0-0.3-0.1-0.4-0.4-0.4h-7.3c-0.2,0-0.3,0.1-0.3,0.4v4c0,0.1,0,0.3,0.1,0.4
		c0.1,0.1,0.1,0.1,0.2,0.1h7.3c0.2,0,0.4-0.2,0.4-0.5V78z"/>
	<path d="M16.9,93c0,0.6-0.3,0.9-0.9,0.9H9.7c-0.6,0-0.9-0.3-0.9-0.9c0-0.6,0.3-0.9,0.9-0.9h2.9c0,0-0.1-0.1-0.1-0.1
		c0,0,0-0.1-0.1-0.1c-0.2-0.4-0.5-0.8-0.7-1.2s-0.4-0.7-0.6-1c-0.2-0.3-0.3-0.6-0.4-0.9s0.1-0.4,0.4-0.6c0.3-0.2,0.5-0.3,0.7-0.2
		c0.2,0,0.4,0.3,0.7,0.7c0.3,0.4,0.5,0.8,0.7,1.1c0.2,0.4,0.4,0.7,0.6,1.1c0.3,0.6,0.3,1,0.1,1.2H16C16.6,92.1,16.9,92.4,16.9,93z
		 M16.4,96.2c0,0.6-0.3,0.9-0.9,0.9h-5.1c-0.6,0-0.9-0.3-0.9-0.9c0-0.6,0.3-0.9,0.9-0.9h5.1C16.1,95.3,16.4,95.6,16.4,96.2z
		 M16.4,99.4c0,0.6-0.3,0.9-0.9,0.9h-5.1c-0.6,0-0.9-0.3-0.9-0.9c0-0.6,0.3-0.9,0.9-0.9h5.1C16.1,98.5,16.4,98.8,16.4,99.4z
		 M16.4,107.9c0,0.8-0.2,1.3-0.5,1.6c-0.3,0.3-0.8,0.4-1.3,0.4h-3.1c-0.7,0-1.1-0.2-1.4-0.5c-0.3-0.3-0.4-0.9-0.4-1.5v-4.5
		c0-1.3,0.6-2,1.8-2h3.1c0.6,0,1,0.1,1.3,0.4c0.3,0.3,0.5,0.8,0.5,1.5V107.9z M14.6,103.5c0-0.1,0-0.2-0.1-0.3
		c-0.1-0.1-0.2-0.1-0.4-0.1h-2.4c-0.2,0-0.3,0.1-0.3,0.4v4.2c0,0.3,0.1,0.4,0.3,0.4h2.6c0.3,0,0.4-0.1,0.4-0.4V103.5z M18.4,94.9
		c-0.3,0.5-0.5,0.7-0.8,0.8s-0.5,0-0.8-0.2c-0.3-0.2-0.4-0.5-0.4-0.7c0-0.3,0.2-0.6,0.4-0.9c0.2-0.3,0.4-0.7,0.6-1s0.4-0.8,0.6-1.2
		c0.2-0.4,0.4-0.8,0.6-1.3s0.3-0.9,0.4-1.3c0.1-0.4,0.3-0.8,0.5-0.9c0.2-0.2,0.4-0.2,0.8-0.2c0.3,0,0.5,0.2,0.6,0.5
		c0.1,0.3,0,0.7-0.1,1.3h7.6c0.9,0,1.5,0.2,1.8,0.6c0.3,0.4,0.5,1,0.6,1.9c0,0.5,0,1.1,0,1.8c0,0.7,0,1.3,0,1.9c0,1.2,0,2.4,0,3.7
		c0,1.2,0,2.3-0.1,3.4c0,1-0.1,1.9-0.1,2.7c0,0.8-0.1,1.3-0.1,1.6c-0.2,1-0.5,1.8-1,2.4s-1.2,1-2.1,1c-0.4,0-0.7,0.1-1.1,0.1
		c-0.3,0-0.7,0-1,0c-0.3,0-0.7-0.1-1.1-0.1c-0.4-0.1-0.8-0.1-1.2-0.2c-0.5-0.1-0.8-0.3-1-0.5c-0.2-0.2-0.2-0.5-0.1-0.8
		c0.1-0.3,0.2-0.5,0.5-0.6c0.2-0.1,0.6-0.1,1.2,0.1c0.7,0.2,1.3,0.3,1.8,0.3c0.5,0,1.1,0,1.7,0c0.4,0,0.7-0.2,1-0.6
		c0.3-0.3,0.4-0.8,0.6-1.6c0-0.3,0.1-1,0.1-1.9c0-0.9,0.1-2,0.1-3.2s0-2.5,0.1-3.9c0-1.4,0-2.7,0-3.9v-1.6c0-0.2,0-0.4-0.1-0.5
		c-0.1-0.1-0.3-0.2-0.6-0.2h-8.1c-0.2,0.5-0.5,1.1-0.8,1.7C19,93.8,18.7,94.4,18.4,94.9z M27.6,104.8c0,0.7-0.2,1.3-0.5,1.6
		c-0.3,0.3-0.8,0.5-1.5,0.5h-5.1c-0.7,0-1.3-0.2-1.5-0.5c-0.3-0.3-0.4-0.8-0.4-1.6v-9.2c0-0.7,0.1-1.2,0.4-1.5s0.8-0.5,1.5-0.5h5.1
		c0.7,0,1.2,0.2,1.5,0.5c0.3,0.3,0.5,0.8,0.5,1.5V104.8z M25.7,95.8c0-0.3-0.1-0.4-0.3-0.4h-4.7c-0.2,0-0.3,0.1-0.3,0.4v3.4h5.3
		V95.8z M25.7,101h-5.3v3.6c0,0.1,0,0.2,0.1,0.3c0.1,0.1,0.1,0.1,0.2,0.1h4.7c0.2,0,0.3-0.1,0.3-0.4V101z"/>
</g>
<g>
	<path d="M14,134.4c-1.2-1.4-1.7-3.1-1.7-5.2c0-2.1,0.6-3.6,1.7-4.5c1.4-1.2,3.5-1.5,6.1-0.9c2.7,0.6,4.8,1.8,6.1,3.6
		c1.2,1.4,1.7,3.1,1.7,5.2c0,2.1-0.6,3.6-1.7,4.5c-1.4,1.2-3.4,1.5-6.1,0.9C17.4,137.4,15.4,136.2,14,134.4z M20.1,134.9
		c1.7,0.3,3,0.3,3.9-0.3c0.9-0.5,1.4-1.4,1.4-2.6s-0.5-2.3-1.4-3.2c-0.9-0.9-2.2-1.6-3.9-1.9c-1.7-0.4-3-0.3-3.9,0.3
		c-0.9,0.5-1.4,1.4-1.4,2.7s0.5,2.3,1.4,3.2C17.1,133.9,18.4,134.5,20.1,134.9z"/>
	<path d="M27.5,141.9v3.3l-10.4,3.7l10.4,2.2v2.9l-14.9-3.2v-3.1l10.6-3.8l-10.6-2.2v-2.9L27.5,141.9z"/>
	<path d="M27.5,156.9v3.1l-12.2-2.6v7.4l-2.7-0.6v-10.5L27.5,156.9z"/>
	<path d="M12.7,169.2v-3.1l14.9,3.2v3.1L12.7,169.2z"/>
	<path d="M27.5,175.2v3.3l-10.4,3.7l10.4,2.2v2.9l-14.9-3.2V181l10.6-3.8l-10.6-2.2V172L27.5,175.2z"/>
	<path d="M24.9,200.6v-7.9l-3.2-0.7v7.2l-2.6-0.6v-7.2l-3.8-0.8v8.2l-2.7-0.6v-11.3l14.9,3.2v10.9L24.9,200.6z"/>
	<path d="M26,210.8c1.2,1.5,1.8,3.1,1.8,5c0,2.5-0.8,4.2-2.5,5c-0.9,0.4-1.8,0.6-2.8,0.4v-3.1c0.7,0,1.3-0.2,1.6-0.4
		c0.6-0.4,1-1.2,1-2.3c0-1.1-0.5-2.1-1.4-3c-0.9-0.8-2.2-1.4-3.9-1.8c-1.7-0.4-2.9-0.3-3.8,0.2c-0.8,0.5-1.2,1.3-1.2,2.4
		c0,1.1,0.4,2,1.1,2.7c0.4,0.4,1,0.8,1.7,1.2v3.1c-1.6-0.6-2.9-1.6-4-2.9s-1.5-2.8-1.5-4.6c0-2.1,0.7-3.7,2.1-4.6
		c1.4-0.9,3.3-1.1,5.7-0.6C22.6,208,24.6,209.1,26,210.8z"/>
	<path d="M14,233.2c-1.2-1.4-1.7-3.1-1.7-5.2c0-2.1,0.6-3.6,1.7-4.5c1.4-1.2,3.5-1.5,6.1-0.9c2.7,0.6,4.8,1.8,6.1,3.6
		c1.2,1.4,1.7,3.1,1.7,5.2c0,2.1-0.6,3.6-1.7,4.5c-1.4,1.2-3.4,1.5-6.1,0.9C17.4,236.2,15.4,235,14,233.2z M20.1,233.7
		c1.7,0.3,3,0.3,3.9-0.3c0.9-0.5,1.4-1.4,1.4-2.6s-0.5-2.3-1.4-3.2c-0.9-0.9-2.2-1.6-3.9-1.9c-1.7-0.4-3-0.3-3.9,0.3
		c-0.9,0.5-1.4,1.4-1.4,2.7s0.5,2.3,1.4,3.2C17.1,232.7,18.4,233.3,20.1,233.7z"/>
	<path d="M27.5,240.7v3.3l-10.4,3.7l10.4,2.2v2.9l-14.9-3.2v-3.1l10.6-3.8l-10.6-2.2v-2.9L27.5,240.7z"/>
	<path d="M17.2,255.7c-0.7,0-1.2,0-1.5,0.2c-0.6,0.4-0.9,1.2-0.9,2.4c0,0.7,0.1,1.3,0.2,1.8c0.3,0.9,0.9,1.5,1.7,1.7
		c0.5,0.1,0.9,0,1.1-0.4c0.3-0.4,0.5-1,0.7-1.9l0.4-1.5c0.3-1.5,0.7-2.5,1.1-3c0.7-0.9,1.8-1.1,3.2-0.8c1.3,0.3,2.4,1,3.3,2.2
		c0.9,1.2,1.3,2.7,1.3,4.6c0,1.6-0.4,2.8-1.2,3.7c-0.8,0.9-2,1.3-3.6,1v-3c0.9,0.1,1.5-0.1,1.9-0.8c0.2-0.4,0.4-1,0.4-1.7
		c0-0.8-0.2-1.5-0.5-2c-0.3-0.5-0.8-0.9-1.4-1c-0.5-0.1-0.9,0-1.2,0.5c-0.2,0.3-0.4,0.9-0.6,1.8l-0.6,2.4c-0.3,1.1-0.6,1.8-1.1,2.3
		c-0.7,0.7-1.7,1-3,0.7c-1.4-0.3-2.5-1-3.4-2.3s-1.3-2.8-1.3-4.7c0-1.9,0.4-3.4,1.3-4.3c0.9-0.9,2.1-1.2,3.6-0.9V255.7z"/>
	<path d="M27.5,269.4v3.2l-9.1-1.9c-1-0.2-1.8-0.3-2.2-0.1c-0.8,0.2-1.3,0.9-1.3,2.2c0,1.3,0.4,2.2,1.3,2.7c0.5,0.3,1.2,0.6,2.2,0.8
		l9.1,1.9v3.2l-9.1-1.9c-1.6-0.3-2.8-0.8-3.7-1.5c-1.6-1.3-2.4-3.2-2.4-5.8s0.8-4.2,2.4-4.7c0.9-0.3,2.1-0.3,3.7,0.1L27.5,269.4z"/>
	<path d="M27.5,284.4v3.1l-12.2-2.6v7.4l-2.7-0.6v-10.5L27.5,284.4z"/>
	<path d="M27.5,306.3l-2.6-0.6v-4.5l-12.2-2.6v-3.1l12.2,2.6v-4.5l2.6,0.6V306.3z"/>
	<path d="M27.5,310.8v3.5l-14.9,2.1v-3.4l3.1-0.3v-5.5l-3.1-1.7v-3.3L27.5,310.8z M18.3,308.7v3.8l5.9-0.6L18.3,308.7z"/>
	<path d="M27.5,330.8l-2.6-0.6v-4.5l-12.2-2.6v-3.1l12.2,2.6v-4.5l2.6,0.6V330.8z"/>
	<path d="M12.7,332.3v-3.1l14.9,3.2v3.1L12.7,332.3z"/>
	<path d="M14,346.9c-1.2-1.4-1.7-3.1-1.7-5.2c0-2.1,0.6-3.6,1.7-4.5c1.4-1.2,3.5-1.5,6.1-0.9c2.7,0.6,4.8,1.8,6.1,3.6
		c1.2,1.4,1.7,3.1,1.7,5.2c0,2.1-0.6,3.6-1.7,4.5c-1.4,1.2-3.4,1.5-6.1,0.9C17.4,349.9,15.4,348.7,14,346.9z M20.1,347.4
		c1.7,0.3,3,0.3,3.9-0.3c0.9-0.5,1.4-1.4,1.4-2.6s-0.5-2.3-1.4-3.2c-0.9-0.9-2.2-1.6-3.9-1.9c-1.7-0.4-3-0.3-3.9,0.3
		c-0.9,0.5-1.4,1.4-1.4,2.7s0.5,2.3,1.4,3.2C17.1,346.4,18.4,347,20.1,347.4z"/>
	<path d="M27.5,354.4v3.3l-10.4,3.7l10.4,2.2v2.9l-14.9-3.2v-3.1l10.6-3.8l-10.6-2.2v-2.9L27.5,354.4z"/>
</g>
<g>
	<path class="st0" d="M30.7,383.8h-0.7v7.5c0,1.2-0.7,2.2-2,2.2H14.8v0.4c0,1,1.2,2.1,2.4,2.1h10.1l3.9,2.3l-0.6-2.3h0.1
		c1.2,0,1.7-1,1.7-2.1v-8.2C32.5,384.5,31.9,383.8,30.7,383.8z"/>
	<path class="st0" d="M26.1,378.6H10.6c-1.4,0-2.9,1.2-2.9,2.4v9.3c0,1.1,1.3,1.8,2.6,2l-0.8,3.1l5.3-3.1h11.3c1.4,0,2.6-0.8,2.6-2
		v-7.6V381C28.7,379.8,27.4,378.6,26.1,378.6z M13,386.5c-0.8,0-1.4-0.6-1.4-1.4s0.6-1.4,1.4-1.4c0.8,0,1.4,0.6,1.4,1.4
		S13.8,386.5,13,386.5z M18.2,386.5c-0.8,0-1.4-0.6-1.4-1.4s0.6-1.4,1.4-1.4s1.4,0.6,1.4,1.4S19,386.5,18.2,386.5z M23.4,386.5
		c-0.8,0-1.4-0.6-1.4-1.4s0.6-1.4,1.4-1.4c0.8,0,1.4,0.6,1.4,1.4S24.2,386.5,23.4,386.5z"/>
</g>
</svg>
