<?xml version="1.0" encoding="utf-8"?>
<!-- Generator: Adobe Illustrator 22.1.0, SVG Export Plug-In . SVG Version: 6.00 Build 0)  -->
<svg version="1.1" id="Layer_1" xmlns="http://www.w3.org/2000/svg" xmlns:xlink="http://www.w3.org/1999/xlink" x="0px" y="0px"
	 viewBox="0 0 40 411.4" style="enable-background:new 0 0 40 411.4;" xml:space="preserve">
<style type="text/css">
	.st0{fill:#231F20;}
</style>
<g>
	<path d="M14.3,21.5c-0.4,0.5-0.9,0.5-1.5-0.1c-0.6-0.5-1.1-0.9-1.7-1.3c-0.6-0.4-1.2-0.8-1.8-1.2c-0.6-0.4-0.8-0.8-0.5-1.3
		c0.2-0.3,0.4-0.4,0.6-0.5c0.2,0,0.5,0.1,0.8,0.2c0.8,0.5,1.4,0.9,2.1,1.3c0.6,0.4,1.2,0.9,1.7,1.3c0.4,0.3,0.6,0.6,0.6,0.8
		S14.5,21.3,14.3,21.5z M14.8,24.5c-0.5,1.4-1.1,2.8-1.8,4c-0.7,1.2-1.5,2.4-2.4,3.6c-0.2,0.3-0.4,0.5-0.7,0.5
		c-0.2,0.1-0.5,0-0.7-0.2c-0.2-0.2-0.4-0.4-0.4-0.6c0-0.2,0.1-0.6,0.5-1c0.7-0.9,1.4-2,2.1-3.2c0.7-1.2,1.3-2.5,1.8-3.9
		c0.1-0.4,0.3-0.6,0.5-0.7c0.2-0.1,0.4-0.1,0.7,0c0.3,0.1,0.4,0.2,0.5,0.5C15,23.7,14.9,24,14.8,24.5z M14.8,15.2
		c-0.3,0.5-0.8,0.4-1.5-0.1c-0.6-0.4-1.1-0.9-1.8-1.3c-0.6-0.4-1.2-0.8-1.6-1.1c-0.3-0.2-0.5-0.4-0.5-0.6s0-0.5,0.2-0.7
		c0.3-0.4,0.8-0.5,1.4-0.1c0.7,0.4,1.3,0.8,1.8,1.2c0.5,0.4,1.1,0.8,1.7,1.2C15.1,14.1,15.2,14.7,14.8,15.2z M16.2,22.4
		c0-0.4,0-0.7,0.1-0.9c0.1-0.2,0.2-0.4,0.3-0.6c0.2-0.1,0.3-0.2,0.6-0.3c0.2,0,0.5-0.1,0.9-0.1h10.1c0.3,0,0.6,0,0.8,0.1
		c0.2,0,0.4,0.1,0.5,0.3c0.1,0.1,0.2,0.3,0.2,0.6c0,0.2,0,0.6,0,1v7.9c0,0.8-0.2,1.4-0.5,1.8c-0.3,0.4-0.9,0.6-1.7,0.5
		c-0.3,0-0.7,0-1.2-0.1c-0.5-0.1-1-0.2-1.7-0.4c-0.4-0.1-0.7-0.3-0.8-0.5c-0.1-0.2-0.1-0.5,0-0.8c0.1-0.3,0.3-0.4,0.5-0.5
		c0.2-0.1,0.5,0,0.8,0.1c1,0.3,1.7,0.5,2.2,0.5c0.2,0,0.4,0,0.5-0.1c0.1-0.1,0.1-0.3,0.1-0.5v-1.6H17.6c-0.1,0.6-0.3,1.1-0.6,1.6
		c-0.2,0.5-0.5,1-0.8,1.5c-0.3,0.4-0.6,0.7-0.8,0.7c-0.3,0.1-0.5,0-0.8-0.2c-0.3-0.2-0.4-0.5-0.4-0.7c0-0.3,0.2-0.6,0.5-0.9
		c0.5-0.6,0.9-1.4,1.1-2.3c0.2-0.9,0.3-2,0.3-3.4V22.4z M30.6,17.9c0.3,0,0.5,0.1,0.7,0.2c0.1,0.2,0.2,0.4,0.2,0.6
		c0,0.3-0.1,0.5-0.2,0.7c-0.1,0.1-0.4,0.2-0.7,0.2H15.2c-0.3,0-0.5-0.1-0.7-0.2c-0.1-0.1-0.2-0.4-0.2-0.7c0-0.3,0.1-0.5,0.2-0.6
		c0.1-0.2,0.3-0.2,0.7-0.2h6.7v-1.2h-5.2c-0.3,0-0.5-0.1-0.7-0.2c-0.1-0.1-0.2-0.4-0.2-0.6c0-0.3,0.1-0.5,0.2-0.6
		c0.1-0.2,0.3-0.2,0.7-0.2h5.2v-1h-6c-0.3,0-0.5-0.1-0.7-0.2C15.1,13.4,15,13.2,15,13c0-0.3,0.1-0.5,0.2-0.6
		c0.1-0.2,0.4-0.2,0.7-0.2h6v-1.1c0-0.3,0.1-0.5,0.2-0.7c0.2-0.1,0.4-0.2,0.6-0.2s0.5,0.1,0.7,0.2c0.2,0.1,0.3,0.4,0.3,0.7v1.1H30
		c0.3,0,0.5,0.1,0.7,0.2c0.1,0.2,0.2,0.4,0.2,0.6c0,0.3-0.1,0.5-0.2,0.7c-0.1,0.2-0.4,0.2-0.7,0.2h-6.3v1h5.3c0.3,0,0.6,0.1,0.7,0.2
		s0.2,0.4,0.2,0.6c0,0.3-0.1,0.5-0.2,0.6c-0.1,0.1-0.3,0.2-0.7,0.2h-5.3v1.2H30.6z M27.9,27v-1.4H18c0,0.2,0,0.5,0,0.7
		c0,0.2,0,0.4-0.1,0.7H27.9z M27.9,23.9v-1.3c0-0.2-0.1-0.3-0.3-0.3h-9.3c-0.2,0-0.3,0.1-0.3,0.3v1.3H27.9z"/>
	<path d="M14.4,47.5C14,48,13.5,48,12.9,47.5c-0.6-0.5-1.1-0.9-1.7-1.3s-1.2-0.8-1.8-1.2c-0.3-0.2-0.5-0.4-0.6-0.6
		c-0.1-0.2,0-0.4,0.1-0.7c0.2-0.3,0.4-0.4,0.6-0.5c0.2,0,0.5,0,0.8,0.2c0.7,0.5,1.4,0.9,2,1.3c0.6,0.4,1.2,0.9,1.7,1.3
		c0.4,0.3,0.6,0.6,0.6,0.8C14.7,47,14.6,47.3,14.4,47.5z M14.9,50.5c-0.5,1.4-1.1,2.8-1.8,4c-0.7,1.2-1.5,2.4-2.4,3.6
		c-0.2,0.3-0.4,0.5-0.7,0.5c-0.2,0.1-0.5,0-0.7-0.2C9.1,58.2,9,58,8.9,57.7c0-0.2,0.1-0.6,0.5-1c0.7-0.9,1.4-2,2.1-3.2
		c0.7-1.2,1.3-2.5,1.8-3.9c0.1-0.4,0.3-0.6,0.5-0.7c0.2-0.1,0.4-0.1,0.7,0c0.3,0.1,0.4,0.2,0.5,0.5C15.1,49.7,15.1,50,14.9,50.5z
		 M14.9,41.2c-0.2,0.3-0.4,0.4-0.6,0.4c-0.2,0-0.5-0.2-0.9-0.5c-0.6-0.4-1.1-0.9-1.8-1.3c-0.6-0.4-1.2-0.8-1.6-1.1
		c-0.3-0.2-0.5-0.4-0.5-0.6s0-0.5,0.2-0.7c0.3-0.4,0.8-0.5,1.4-0.1c0.7,0.4,1.3,0.8,1.8,1.2c0.5,0.4,1.1,0.8,1.7,1.2
		c0.4,0.3,0.6,0.5,0.6,0.7C15.2,40.6,15.1,40.9,14.9,41.2z M24.2,41.2v3.6h5.2c0.7,0,1,0.3,1,0.9c0,0.6-0.3,0.9-1,0.9h-12
		c-0.4,0-0.6-0.1-0.8-0.3c-0.2-0.2-0.2-0.4-0.2-0.7c0-0.3,0.1-0.5,0.2-0.7c0.2-0.1,0.4-0.2,0.8-0.2h4.9v-3.6h-5.7
		c-0.4,0-0.6-0.1-0.8-0.2c-0.2-0.2-0.2-0.4-0.2-0.7c0-0.3,0.1-0.5,0.2-0.7c0.2-0.1,0.4-0.2,0.8-0.2h5.7v-2.5c0-0.7,0.3-1,0.9-1
		c0.3,0,0.5,0.1,0.7,0.2c0.2,0.2,0.3,0.4,0.3,0.8v2.5h6.2c0.4,0,0.6,0.1,0.8,0.2c0.2,0.1,0.2,0.4,0.2,0.7c0,0.3-0.1,0.5-0.2,0.7
		s-0.4,0.2-0.8,0.2H24.2z M29.7,56.1c0,0.8-0.2,1.3-0.5,1.7c-0.3,0.3-0.9,0.5-1.8,0.5h-7.8c-0.8,0-1.4-0.2-1.8-0.5
		c-0.3-0.3-0.5-0.9-0.5-1.7v-5.2c0-0.8,0.2-1.3,0.5-1.7s0.9-0.5,1.8-0.5h7.8c0.9,0,1.5,0.2,1.8,0.5c0.3,0.3,0.5,0.9,0.5,1.7V56.1z
		 M27.9,50.9c0-0.2-0.2-0.3-0.5-0.3h-7.9c-0.3,0-0.4,0.1-0.4,0.3v5.3c0,0.2,0.1,0.3,0.4,0.3h7.9c0.3,0,0.5-0.1,0.5-0.3V50.9z"/>
	<path d="M13.8,82.6c0.4,0.1,0.7,0.2,1,0.3c0.2,0,0.4,0,0.5,0c0.1,0,0.2-0.1,0.3-0.2c0-0.1,0.1-0.3,0.1-0.5v-4.8h-3.8
		c0,0.7-0.1,1.3-0.1,1.9c-0.1,0.6-0.1,1.1-0.3,1.7s-0.2,1-0.4,1.5c-0.2,0.5-0.3,1-0.5,1.4c-0.2,0.5-0.4,0.7-0.6,0.8
		c-0.2,0.1-0.5,0.1-0.8-0.1c-0.3-0.1-0.4-0.3-0.5-0.6s0-0.6,0.3-1c0.3-0.5,0.5-1,0.6-1.5c0.2-0.5,0.3-1.1,0.4-1.7
		c0.1-0.7,0.2-1.4,0.2-2.3c0-0.9,0-2,0-3.3v-9c0-0.7,0.1-1.2,0.4-1.5c0.3-0.3,0.7-0.5,1.5-0.5h3.6c0.7,0,1.2,0.2,1.5,0.5
		c0.3,0.3,0.4,0.8,0.4,1.5v17.1c0,0.9-0.2,1.5-0.5,1.9c-0.3,0.4-0.9,0.5-1.7,0.5c-0.3,0-0.6,0-0.9-0.1s-0.6-0.1-1-0.3
		c-0.4-0.2-0.7-0.3-0.8-0.5c-0.1-0.2-0.1-0.4,0-0.8c0.1-0.3,0.2-0.4,0.4-0.5C13.2,82.5,13.5,82.5,13.8,82.6z M15.7,65.4
		c0-0.3-0.1-0.4-0.3-0.4h-3.1c-0.2,0-0.3,0.1-0.3,0.4v4.1h3.7V65.4z M11.9,75.6h3.7v-4.4h-3.7V75.6z M21.9,84.4
		c-0.3,0.3-0.6,0.4-0.9,0.4c-0.2,0-0.5-0.1-0.7-0.4c-0.1,0.2-0.4,0.3-0.6,0.3c-0.6,0-0.9-0.3-0.9-0.9V65.4c0-0.4,0-0.8,0.1-1.1
		c0-0.3,0.1-0.5,0.3-0.7c0.1-0.2,0.3-0.3,0.6-0.3c0.3-0.1,0.6-0.1,1-0.1h6.8c0.4,0,0.8,0,1.1,0.1c0.3,0.1,0.5,0.2,0.7,0.4
		c0.2,0.2,0.3,0.5,0.3,1c0.1,0.4,0.1,1,0.1,1.6c0,0.9,0,1.6-0.1,2.1c-0.1,0.6-0.3,1-0.5,1.4c-0.2,0.3-0.5,0.6-0.9,0.7
		c-0.4,0.1-0.8,0.2-1.3,0.2c-0.5,0-1-0.1-1.6-0.2c-0.6-0.1-1.3-0.4-2.1-0.7c-0.4-0.2-0.7-0.4-0.8-0.6c-0.1-0.2-0.1-0.5,0.1-0.8
		c0.1-0.3,0.3-0.4,0.5-0.5c0.2,0,0.5,0,1,0.2c1.2,0.6,2.1,0.9,2.8,0.9c0.2,0,0.4,0,0.6-0.1c0.2-0.1,0.3-0.2,0.4-0.4s0.2-0.4,0.2-0.8
		c0-0.3,0.1-0.8,0.1-1.4c0-0.6,0-1-0.1-1.2S27.7,65,27.5,65h-6.6c-0.2,0-0.3,0-0.3,0.1c0,0.1-0.1,0.2-0.1,0.3v5.8H28
		c0.9,0,1.5,0.2,1.8,0.7c0.3,0.5,0.3,1.1,0,1.9c-0.5,1.3-0.9,2.4-1.4,3.4c-0.5,1-1.1,1.9-1.7,2.7c1.1,1.1,2.4,2.2,3.9,3.1
		c0.4,0.3,0.7,0.5,0.8,0.7s0.1,0.5,0,0.7c-0.2,0.3-0.4,0.5-0.7,0.5c-0.3,0-0.6-0.1-1-0.4c-0.8-0.5-1.5-1-2.2-1.6
		c-0.7-0.5-1.3-1.1-1.9-1.8c-0.5,0.5-1.1,1.1-1.6,1.6C23.3,83.3,22.6,83.9,21.9,84.4z M24.4,80c-0.8-1-1.5-2.1-2.1-3.2
		c-0.6-1.2-1.1-2.4-1.6-3.8h-0.1v10.3C22.1,82.2,23.4,81.1,24.4,80z M22.5,73c0.8,2.2,1.8,4,3,5.7c0.5-0.7,1-1.5,1.4-2.3
		c0.4-0.8,0.8-1.8,1.2-2.8c0.1-0.3,0-0.5-0.2-0.5H22.5z"/>
	<path d="M12.3,95.1c-0.3,0.2-0.5,0.3-0.8,0.4c-0.2,0-0.5-0.1-0.7-0.2c-0.2-0.2-0.3-0.4-0.3-0.7c0-0.3,0.2-0.6,0.5-0.8
		c0.4-0.3,0.8-0.6,1.1-1c0.4-0.4,0.7-0.8,1.1-1.3c0.3-0.5,0.6-0.9,0.9-1.4s0.5-0.9,0.6-1.3c0.2-0.4,0.4-0.7,0.6-0.8s0.4-0.1,0.8,0
		c0.4,0.1,0.6,0.3,0.6,0.5c0.1,0.2,0,0.6-0.3,1.2h10.7c0.5,0,1,0.1,1.3,0.2c0.3,0.1,0.5,0.3,0.6,0.5c0.1,0.2,0.1,0.5,0,0.8
		c-0.1,0.3-0.3,0.6-0.5,0.9c-0.7,0.8-1.5,1.6-2.5,2.2s-2,1.4-3.2,2c1.2,0.5,2.4,1,3.6,1.4c1.2,0.4,2.5,0.7,3.7,1
		c0.6,0.1,1,0.2,1.2,0.4c0.2,0.2,0.3,0.4,0.2,0.7c0,0.4-0.2,0.6-0.5,0.8c-0.3,0.1-0.6,0.2-1.1,0c-1.7-0.4-3.4-0.9-5-1.5
		c-1.6-0.6-3-1.2-4.2-1.8c-1.6,0.7-3.2,1.4-5,2c-1.8,0.6-3.7,1.1-5.7,1.4c-0.5,0.1-0.9,0.1-1.1,0c-0.2-0.1-0.3-0.4-0.3-0.7
		c0-0.7,0.4-1,1.1-1.1c1.5-0.2,3.1-0.6,4.7-1s3.1-1,4.6-1.6c-1.5-1-2.8-2.2-4.1-3.6c-0.4,0.5-0.7,1-1.1,1.4
		C13.2,94.3,12.8,94.7,12.3,95.1z M19.3,99.7c0,0.3-0.1,0.5-0.1,0.7c0,0.2-0.1,0.5-0.1,0.7h7.7c0.4,0,0.8,0,1,0.1
		c0.3,0.1,0.5,0.2,0.6,0.3c0.1,0.2,0.2,0.4,0.3,0.7c0.1,0.3,0.1,0.7,0.1,1.2c0.1,0.6,0.1,1.1,0,1.7c0,0.6-0.1,1.2-0.1,1.8
		c-0.1,0.7-0.2,1.4-0.5,1.8c-0.2,0.5-0.6,0.9-0.9,1.2c-0.4,0.3-0.8,0.5-1.3,0.6c-0.5,0.1-1,0.2-1.6,0.2c-0.5,0-1.2-0.1-1.9-0.2
		c-0.8-0.1-1.8-0.3-3.1-0.6c-0.4-0.1-0.7-0.2-0.9-0.5c-0.2-0.2-0.2-0.5-0.1-0.8c0.1-0.3,0.3-0.5,0.5-0.6c0.2-0.1,0.5-0.1,0.9,0
		c1.1,0.2,2,0.4,2.9,0.5c0.8,0.1,1.5,0.2,2,0.2c0.8,0,1.3-0.2,1.6-0.5c0.3-0.3,0.5-0.8,0.5-1.5c0-0.4,0.1-0.8,0.1-1.3
		c0-0.5,0-1.1,0-1.8c0-0.3-0.1-0.5-0.2-0.6c-0.1-0.1-0.3-0.1-0.6-0.1h-7.6c-0.3,1-0.6,2-1,2.8c-0.4,0.8-0.9,1.6-1.5,2.2
		c-0.6,0.7-1.3,1.2-2.1,1.7c-0.8,0.5-1.7,0.9-2.7,1.3c-0.5,0.2-0.8,0.2-1,0.1c-0.2-0.1-0.4-0.3-0.5-0.7c0-0.3,0-0.6,0.2-0.8
		s0.4-0.4,0.8-0.5c1.5-0.4,2.7-1,3.6-2.1c1-1,1.7-2.4,2.2-4.1h-5c-0.3,0-0.5-0.1-0.7-0.2c-0.1-0.1-0.2-0.4-0.2-0.7
		c0-0.3,0.1-0.5,0.2-0.7c0.1-0.1,0.4-0.2,0.7-0.2h5.4c0-0.2,0.1-0.5,0.1-0.7c0-0.2,0.1-0.5,0.1-0.8c0.1-0.7,0.4-1,1-1
		C19.1,98.5,19.4,98.9,19.3,99.7z M16.1,91.3c0.7,0.8,1.5,1.5,2.2,2.1s1.6,1.2,2.6,1.7c1.1-0.6,2.1-1.1,2.9-1.7
		c0.9-0.6,1.6-1.1,2.2-1.7c0.1-0.1,0.2-0.3,0.2-0.4c0-0.1-0.1-0.2-0.3-0.1H16.1z"/>
	<path d="M12.1,121c-0.3,0.2-0.6,0.4-0.8,0.4c-0.2,0-0.5,0-0.7-0.2c-0.2-0.2-0.3-0.5-0.2-0.8s0.3-0.6,0.6-0.8c0.4-0.3,0.8-0.6,1.2-1
		c0.4-0.4,0.8-0.8,1.1-1.2c0.3-0.4,0.6-0.8,0.9-1.3c0.3-0.4,0.5-0.8,0.6-1.2c0.4-0.8,0.8-1.1,1.4-0.8c0.6,0.2,0.6,0.7,0.3,1.5
		c0,0,0,0,0,0h9.4c0.4,0,0.7,0.1,1,0.2c0.3,0.2,0.4,0.3,0.5,0.6c0.1,0.2,0.1,0.5,0,0.8s-0.2,0.5-0.4,0.8c-0.7,0.9-1.5,1.7-2.3,2.4
		c-0.8,0.7-1.7,1.3-2.6,1.8c0.6,0.3,1.3,0.5,1.9,0.8c0.7,0.2,1.3,0.4,2,0.6s1.3,0.3,2,0.5c0.6,0.1,1.3,0.3,1.8,0.4
		c0.6,0.1,1,0.2,1.2,0.4c0.2,0.2,0.3,0.4,0.2,0.7c0,0.4-0.2,0.6-0.4,0.8s-0.6,0.1-1.1,0c-1.8-0.3-3.6-0.7-5.2-1.2
		c-1.7-0.5-3.1-1.1-4.4-1.8c-1.4,0.7-2.8,1.3-4.4,1.8c-1.6,0.5-3.4,1-5.4,1.4c-0.6,0.1-0.9,0.1-1.2,0c-0.2-0.1-0.3-0.4-0.3-0.8
		c0-0.3,0.1-0.5,0.2-0.7c0.2-0.1,0.4-0.3,0.8-0.3c1.6-0.3,3.1-0.6,4.5-1c1.4-0.4,2.7-0.9,4-1.5c-1.5-1-2.8-2.1-4-3.3
		c-0.3,0.4-0.7,0.7-1,1.1S12.5,120.7,12.1,121z M17.2,130.3c0.5,0.5,0.4,1-0.2,1.5c-0.5,0.5-1,0.9-1.5,1.2c-0.5,0.3-0.9,0.7-1.4,1
		c-0.4,0.3-0.9,0.5-1.3,0.8c-0.5,0.2-0.9,0.5-1.4,0.7c-0.5,0.2-0.9,0.3-1.2,0.2c-0.3-0.1-0.4-0.3-0.5-0.5c-0.1-0.3-0.1-0.5,0.1-0.8
		c0.1-0.2,0.4-0.5,0.8-0.6c1-0.4,1.8-0.8,2.7-1.3c0.8-0.5,1.7-1.2,2.5-2c0.3-0.2,0.5-0.4,0.8-0.4C16.7,130,16.9,130.1,17.2,130.3z
		 M19.2,125.1c0-0.4,0.1-0.6,0.2-0.8c0.2-0.1,0.4-0.2,0.7-0.2c0.3,0,0.5,0.1,0.7,0.2c0.2,0.1,0.2,0.4,0.2,0.8v1.8h8.1
		c0.6,0,1,0.3,1,0.9c0,0.6-0.3,0.9-1,0.9H21v7c0,0.4-0.1,0.7-0.2,0.8c-0.2,0.2-0.4,0.2-0.6,0.2c-0.3,0-0.5-0.1-0.7-0.2
		s-0.3-0.4-0.3-0.9v-6.9h-8.2c-0.4,0-0.6-0.1-0.8-0.2c-0.1-0.1-0.2-0.4-0.2-0.7c0-0.3,0.1-0.6,0.2-0.7c0.1-0.2,0.4-0.2,0.8-0.2h8.2
		V125.1z M15.4,117.4c0,0.1-0.1,0.1-0.1,0.2c0.7,0.7,1.5,1.4,2.2,2c0.8,0.6,1.7,1.2,2.7,1.7c1.1-0.6,2-1.1,2.7-1.7
		c0.8-0.6,1.4-1.2,2-1.8c0.2-0.2,0.2-0.4-0.1-0.4H15.4z M29.8,135.8c-0.2,0.2-0.4,0.3-0.7,0.3c-0.3,0-0.6-0.2-1-0.5
		c-0.3-0.3-0.7-0.6-1.1-0.9c-0.4-0.3-0.8-0.6-1.3-1c-0.4-0.3-0.9-0.6-1.3-0.9c-0.4-0.3-0.9-0.5-1.3-0.8c-0.4-0.2-0.7-0.4-0.7-0.7
		c-0.1-0.2-0.1-0.4,0.1-0.7c0.1-0.3,0.3-0.4,0.6-0.5c0.3-0.1,0.6,0,1,0.3c1,0.6,2,1.2,2.8,1.8c0.8,0.6,1.6,1.2,2.4,1.8
		c0.4,0.4,0.7,0.7,0.7,0.9C30,135.4,29.9,135.6,29.8,135.8z"/>
	<path d="M20.8,152.8c0,0.3-0.1,0.5-0.2,0.6c-0.1,0.1-0.3,0.2-0.7,0.2H16v7.5c0,0.5-0.1,0.8-0.2,1c-0.1,0.2-0.3,0.3-0.6,0.3
		c-0.4,0-0.6-0.1-0.8-0.3c-0.2-0.2-0.2-0.5-0.2-1v-7.5H9.8c-0.3,0-0.5-0.1-0.7-0.2c-0.1-0.1-0.2-0.3-0.2-0.6c0-0.3,0.1-0.5,0.2-0.6
		c0.1-0.2,0.3-0.2,0.7-0.2H20c0.3,0,0.5,0.1,0.7,0.2C20.7,152.3,20.8,152.5,20.8,152.8z M13,155.9c-0.1,0.5-0.3,0.9-0.4,1.2
		c-0.1,0.4-0.3,0.7-0.5,1.1c-0.2,0.3-0.3,0.7-0.5,1c-0.2,0.3-0.4,0.7-0.6,1.1c-0.3,0.4-0.5,0.7-0.7,0.7c-0.2,0.1-0.5,0-0.8-0.2
		c-0.5-0.3-0.5-0.8,0-1.5c0.5-0.7,0.8-1.4,1.1-2c0.3-0.6,0.5-1.3,0.8-2c0.1-0.4,0.3-0.7,0.5-0.8c0.2-0.1,0.4-0.1,0.7-0.1
		c0.3,0.1,0.5,0.3,0.6,0.5C13.1,155.2,13.1,155.5,13,155.9z M20.3,146.5c0,0.3-0.1,0.5-0.2,0.6c-0.1,0.1-0.4,0.2-0.7,0.2h-9
		c-0.3,0-0.5-0.1-0.7-0.2c-0.1-0.1-0.2-0.4-0.2-0.6c0-0.3,0.1-0.5,0.2-0.6c0.1-0.2,0.4-0.2,0.7-0.2h3.9v-1.7H10
		c-0.3,0-0.6-0.1-0.7-0.2c-0.1-0.1-0.2-0.4-0.2-0.6c0-0.3,0.1-0.5,0.2-0.6c0.1-0.2,0.3-0.2,0.7-0.2h4.4V141c0-0.3,0.1-0.6,0.2-0.7
		c0.2-0.1,0.4-0.2,0.6-0.2c0.2,0,0.4,0.1,0.6,0.2c0.2,0.1,0.3,0.4,0.3,0.7v1.2h4c0.3,0,0.5,0.1,0.7,0.2c0.1,0.2,0.2,0.4,0.2,0.6
		c0,0.3-0.1,0.5-0.2,0.6c-0.1,0.1-0.4,0.2-0.7,0.2h-4v1.7h3.4c0.3,0,0.5,0.1,0.7,0.2C20.3,146.1,20.3,146.3,20.3,146.5z M19.6,149.5
		c0,0.3-0.1,0.5-0.2,0.6c-0.1,0.1-0.3,0.2-0.7,0.2h-8.1c-0.3,0-0.5-0.1-0.7-0.2c-0.1-0.1-0.2-0.3-0.2-0.6s0.1-0.5,0.2-0.6
		c0.1-0.2,0.4-0.2,0.7-0.2h8.1c0.3,0,0.5,0.1,0.7,0.2S19.6,149.2,19.6,149.5z M20.5,158.2c0.2,0.5,0.2,0.8,0.2,1
		c0,0.2-0.2,0.4-0.5,0.5c-0.3,0.1-0.6,0.1-0.8,0c-0.2-0.1-0.4-0.5-0.5-0.9c-0.2-0.5-0.4-1.1-0.6-1.6c-0.2-0.5-0.5-1.1-0.8-1.6
		c-0.2-0.3-0.3-0.6-0.2-0.8c0-0.2,0.2-0.4,0.5-0.6c0.3-0.2,0.5-0.2,0.7-0.2c0.2,0.1,0.4,0.3,0.6,0.7c0.3,0.6,0.6,1.2,0.9,1.7
		C20,157.1,20.2,157.6,20.5,158.2z M21.7,149.1c-0.2,0.5-0.4,0.8-0.6,1c-0.2,0.2-0.5,0.1-0.8,0c-0.3-0.1-0.5-0.3-0.5-0.6
		c0-0.2,0.1-0.6,0.3-1.1c0.6-1.2,1-2.4,1.3-3.6c0.3-1.2,0.5-2.3,0.6-3.5c0.1-0.5,0.2-0.9,0.3-1.1c0.1-0.2,0.4-0.3,0.7-0.2
		c0.4,0,0.6,0.2,0.7,0.4c0.1,0.2,0.1,0.6,0,1.1c-0.1,0.6-0.2,1.1-0.2,1.5h5.6c0.9,0,1.4,0.2,1.7,0.7c0.3,0.4,0.3,1.1,0.1,2.1
		c-0.1,0.6-0.3,1.3-0.5,2c-0.2,0.7-0.5,1.5-0.9,2.3c-0.2,0.5-0.4,0.7-0.6,0.8c-0.2,0.1-0.5,0.1-0.8-0.1c-0.3-0.1-0.4-0.3-0.5-0.6
		c0-0.2,0.1-0.6,0.3-1c0.3-0.6,0.6-1.2,0.8-1.8s0.4-1.2,0.5-1.9c0.1-0.3,0.1-0.6,0-0.7c-0.1-0.1-0.2-0.2-0.5-0.2h-2.3
		c0,0.9,0,1.8-0.1,2.6s-0.1,1.6-0.2,2.3c0.2,1.2,0.5,2.3,0.9,3.4c0.4,1.1,0.7,2.1,1.2,3.1s0.9,1.8,1.3,2.6s0.9,1.5,1.4,2
		c0.3,0.4,0.5,0.7,0.5,1c0,0.3-0.1,0.5-0.4,0.7c-0.3,0.2-0.5,0.3-0.7,0.3c-0.2,0-0.5-0.3-0.8-0.7c-1.8-2.3-3.1-5-4-8.1
		c-0.2,0.9-0.5,1.7-0.8,2.4c-0.3,0.7-0.6,1.4-1,2.1c-0.4,0.6-0.8,1.3-1.3,1.8c-0.5,0.6-1,1.2-1.6,1.7c-0.4,0.4-0.7,0.6-1,0.7
		c-0.3,0.1-0.5-0.1-0.8-0.3c-0.2-0.3-0.3-0.5-0.2-0.7c0-0.2,0.3-0.5,0.7-0.9c0.9-0.8,1.7-1.7,2.3-2.6c0.6-0.9,1.1-2,1.5-3.2
		c0.4-1.2,0.7-2.6,0.9-4.3c0.2-1.6,0.3-3.6,0.3-5.8h-1.5c-0.2,0.7-0.4,1.3-0.6,2C22.4,147.5,22.1,148.3,21.7,149.1z"/>
</g>
<g>
	<path d="M27.5,190.2l-2.6-0.6v-4.5l-12.2-2.6v-3.1l12.2,2.6v-4.5l2.6,0.6V190.2z"/>
	<path d="M24.9,202.3v-7.9l-3.2-0.7v7.2l-2.6-0.6v-7.2l-3.8-0.8v8.2l-2.7-0.6v-11.3l14.9,3.2v10.9L24.9,202.3z"/>
	<path d="M26.1,216.3c-0.4,0.2-0.8,0.4-1.3,0.5c-0.5,0.1-1,0.1-1.6,0c-0.7-0.2-1.4-0.5-2.1-1c-0.7-0.5-1.2-1.2-1.4-2.1
		c-0.3,0.6-0.7,1-1.2,1.2c-0.5,0.2-1.3,0.2-2.3-0.1l-1-0.2c-0.7-0.1-1.1-0.2-1.4-0.2c-0.4,0-0.7,0.1-0.8,0.4l-0.4-0.1v-3.4
		c0.3,0,0.6,0,0.8,0c0.4,0,0.8,0.1,1.3,0.1l1.4,0.3c0.9,0.2,1.6,0.1,1.9-0.1s0.5-0.9,0.5-1.8v-3.2l-5.8-1.2v-3l14.9,3.2v7.3
		c0,1-0.1,1.8-0.4,2.3C26.9,215.6,26.6,216,26.1,216.3z M24.9,208l-4-0.8v3.5c0,0.7,0.1,1.2,0.2,1.6c0.3,0.7,0.8,1.1,1.7,1.3
		c0.9,0.2,1.5,0,1.8-0.5c0.2-0.3,0.3-0.8,0.3-1.5V208z"/>
	<path d="M27.5,230v4.5l-14.9-3.2v-2.9l10.1,2.1c0.3,0.1,0.7,0.2,1.2,0.3c0.5,0.1,0.9,0.2,1.2,0.3l-12.5-5.5v-3l12.5-0.2
		c-0.3-0.1-0.7-0.1-1.2-0.2S23,222,22.7,222l-10.1-2.1v-2.9l14.9,3.2v4.5l-11.7,0.2L27.5,230z"/>
	<path d="M17.2,237.2c-0.7,0-1.2,0-1.5,0.2c-0.6,0.4-0.9,1.2-0.9,2.4c0,0.7,0.1,1.3,0.2,1.8c0.3,0.9,0.9,1.5,1.7,1.7
		c0.5,0.1,0.9,0,1.1-0.4c0.3-0.4,0.5-1,0.7-1.9l0.4-1.5c0.3-1.5,0.7-2.5,1.1-3c0.7-0.9,1.8-1.1,3.2-0.8c1.3,0.3,2.4,1,3.3,2.2
		c0.9,1.2,1.3,2.7,1.3,4.6c0,1.6-0.4,2.8-1.2,3.7c-0.8,0.9-2,1.3-3.6,1v-3c0.9,0.1,1.5-0.1,1.9-0.8c0.2-0.4,0.4-1,0.4-1.7
		c0-0.8-0.2-1.5-0.5-2c-0.3-0.5-0.8-0.9-1.4-1c-0.5-0.1-0.9,0-1.2,0.5c-0.2,0.3-0.4,0.9-0.6,1.8l-0.6,2.4c-0.3,1.1-0.6,1.8-1.1,2.3
		c-0.7,0.7-1.7,1-3,0.7c-1.4-0.3-2.5-1-3.4-2.3s-1.3-2.8-1.3-4.7c0-1.9,0.4-3.4,1.3-4.3c0.9-0.9,2.1-1.2,3.6-0.9V237.2z"/>
	<path d="M12.3,257.7c0-1.9,0.6-3.2,1.7-3.9c1.1-0.7,2.5-0.9,4.1-0.5c1.6,0.3,3,1.1,4.1,2.3c1.2,1.2,1.7,2.7,1.7,4.6
		s-0.6,3.2-1.7,3.9c-1.2,0.7-2.5,0.9-4.1,0.5c-1.6-0.3-3-1.1-4.1-2.3C12.8,261.2,12.3,259.6,12.3,257.7z M18.1,261.6
		c1.1,0.2,2,0.2,2.5-0.1c0.6-0.3,0.9-0.9,0.9-1.8c0-0.8-0.3-1.6-0.9-2.1c-0.6-0.6-1.4-1-2.5-1.2c-1.1-0.2-2-0.2-2.6,0.1
		s-0.9,0.9-0.9,1.8c0,0.8,0.3,1.6,0.9,2.1C16.2,261,17,261.4,18.1,261.6z"/>
	<path d="M27.6,273.7l-2.3-0.5c0-0.2,0-0.4,0-0.8s-0.1-0.7-0.3-0.8c-0.2-0.2-0.4-0.3-0.6-0.3c-0.2,0-0.5-0.1-0.9-0.2v1.9l-2-0.4
		v-1.9l-8.9-1.9v-2.9l8.9,1.9v-1.6l2,0.4v1.6l0.7,0.2c1.2,0.2,2,0.6,2.4,1.1c0.7,0.6,1,1.6,1,3.2c0,0.2,0,0.3,0,0.5
		C27.7,273.2,27.6,273.4,27.6,273.7z"/>
	<path d="M17.2,281c-0.7,0-1.2,0-1.5,0.2c-0.6,0.4-0.9,1.2-0.9,2.4c0,0.7,0.1,1.3,0.2,1.8c0.3,0.9,0.9,1.5,1.7,1.7
		c0.5,0.1,0.9,0,1.1-0.4c0.3-0.4,0.5-1,0.7-1.9l0.4-1.5c0.3-1.5,0.7-2.5,1.1-3c0.7-0.9,1.8-1.1,3.2-0.8c1.3,0.3,2.4,1,3.3,2.2
		c0.9,1.2,1.3,2.7,1.3,4.6c0,1.6-0.4,2.8-1.2,3.7c-0.8,0.9-2,1.3-3.6,1v-3c0.9,0.1,1.5-0.1,1.9-0.8c0.2-0.4,0.4-1,0.4-1.7
		c0-0.8-0.2-1.5-0.5-2c-0.3-0.5-0.8-0.9-1.4-1c-0.5-0.1-0.9,0-1.2,0.5c-0.2,0.3-0.4,0.9-0.6,1.8l-0.6,2.4c-0.3,1.1-0.6,1.8-1.1,2.3
		c-0.7,0.7-1.7,1-3,0.7c-1.4-0.3-2.5-1-3.4-2.3s-1.3-2.8-1.3-4.7c0-1.9,0.4-3.4,1.3-4.3c0.9-0.9,2.1-1.2,3.6-0.9V281z"/>
	<path d="M24.9,304.9v-7.9l-3.2-0.7v7.2l-2.6-0.6v-7.2l-3.8-0.8v8.2l-2.7-0.6v-11.3l14.9,3.2v10.9L24.9,304.9z"/>
	<path d="M26.1,319c-0.4,0.2-0.8,0.4-1.3,0.5c-0.5,0.1-1,0.1-1.6,0c-0.7-0.2-1.4-0.5-2.1-1c-0.7-0.5-1.2-1.2-1.4-2.1
		c-0.3,0.6-0.7,1-1.2,1.2c-0.5,0.2-1.3,0.2-2.3-0.1l-1-0.2c-0.7-0.1-1.1-0.2-1.4-0.2c-0.4,0-0.7,0.1-0.8,0.4l-0.4-0.1V314
		c0.3,0,0.6,0,0.8,0c0.4,0,0.8,0.1,1.3,0.1l1.4,0.3c0.9,0.2,1.6,0.1,1.9-0.1s0.5-0.9,0.5-1.8v-3.2l-5.8-1.2v-3l14.9,3.2v7.3
		c0,1-0.1,1.8-0.4,2.3C26.9,318.3,26.6,318.7,26.1,319z M24.9,310.6l-4-0.8v3.5c0,0.7,0.1,1.2,0.2,1.6c0.3,0.7,0.8,1.1,1.7,1.3
		c0.9,0.2,1.5,0,1.8-0.5c0.2-0.3,0.3-0.8,0.3-1.5V310.6z"/>
	<path d="M27.5,331.2v3.2l-14.9-8.2v-2.9l14.9-1.9v3.3l-11.3,0.8L27.5,331.2z"/>
	<path d="M12.7,335.7v-3.1l14.9,3.2v3.1L12.7,335.7z"/>
	<path d="M26,342.7c1.2,1.5,1.8,3.1,1.8,5c0,2.5-0.8,4.2-2.5,5c-0.9,0.4-1.8,0.6-2.8,0.4V350c0.7,0,1.3-0.2,1.6-0.4
		c0.6-0.4,1-1.2,1-2.3c0-1.1-0.5-2.1-1.4-3c-0.9-0.8-2.2-1.4-3.9-1.8c-1.7-0.4-2.9-0.3-3.8,0.2c-0.8,0.5-1.2,1.3-1.2,2.4
		c0,1.1,0.4,2,1.1,2.7c0.4,0.4,1,0.8,1.7,1.2v3.1c-1.6-0.6-2.9-1.6-4-2.9s-1.5-2.8-1.5-4.6c0-2.1,0.7-3.7,2.1-4.6
		c1.4-0.9,3.3-1.1,5.7-0.6C22.6,339.9,24.6,341,26,342.7z"/>
	<path d="M24.9,366.7v-7.9l-3.2-0.7v7.2l-2.6-0.6v-7.2l-3.8-0.8v8.2l-2.7-0.6v-11.3l14.9,3.2v10.9L24.9,366.7z"/>
</g>
<g>
	<path class="st0" d="M17.4,375v6.2h-6.2v17.4h17.7V375H17.4z M25.4,391.8H14.6c-0.4,0-0.8-0.4-0.8-0.8c0-0.4,0.4-0.8,0.8-0.8h10.9
		c0.4,0,0.8,0.4,0.8,0.8C26.2,391.5,25.9,391.8,25.4,391.8z M25.4,388.7H14.6c-0.4,0-0.8-0.4-0.8-0.8c0-0.4,0.4-0.8,0.8-0.8h10.9
		c0.4,0,0.8,0.4,0.8,0.8C26.2,388.3,25.9,388.7,25.4,388.7z M25.4,385.6H14.6c-0.4,0-0.8-0.4-0.8-0.8s0.4-0.8,0.8-0.8h10.9
		c0.4,0,0.8,0.4,0.8,0.8S25.9,385.6,25.4,385.6z"/>
	<polygon class="st0" points="16.2,375 11.1,380 16.2,380 	"/>
</g>
</svg>
